<svg   id="chart"   width="1000"   height="500"   viewBox="0 0 1000 500"   xmlns="http://www.w3.org/2000/svg" >      <path d="M 0,497.5354813588297 C 10.6,494.86076850933654 31.799999999999997,492.04452649372803 53,484.1619171113638 C 74.2,476.2793077289995 84.8,463.0539548593799 106,458.1224344470084 C 127.2,453.1909140346369 137.8,462.45323884258016 159,459.5043150495061 C 180.2,456.555391256432 190.8,451.3566873236479 212,443.3778154816381 C 233.2,435.39894363962827 243.8,428.9718149438292 265,419.6099558394569 C 286.2,410.24809673508463 296.8,414.839726231036 318,396.5685199597766 C 339.2,378.2973136885172 349.8,345.0147053360243 371,328.2539244831597 C 392.2,311.49314363029515 402.8,324.4381736684612 424,312.76461569545364 C 445.2,301.09105772244607 455.8,281.80504654833084 477,269.8861346181218 C 498.2,257.96722268791274 508.8,240.67330400362533 530,253.17005604440845 C 551.2,265.6668080851916 561.8,325.2123099031889 583,332.3698948220374 C 604.2,339.5274797408859 614.8,311.8370524191025 636,288.95798063865084 C 657.2,266.07890885819916 667.8,222.82047353835966 689,217.974535919779 C 710.2,213.1285983011983 720.8,248.94077309138564 742,264.7282925457475 C 763.2,280.5158120001093 773.8,326.6165055097473 795,296.91213319158817 C 816.2,267.20776087342904 826.8,159.4271044101551 848,116.20643095495194 C 869.2,72.98575749974879 879.8,60.963787918124154 901,80.80876591557245 C 922.2,100.65374391302075 932.8,223.1172490838226 954,215.43132094219345 C 975.2,207.7453928005643 996.4,76.98956435438004 1007,42.37912520742668,L 1000 500,L 0 500Z" fill="#444cf71a" />   <path d="M 0,497.5354813588297 C 10.6,494.86076850933654 31.799999999999997,492.04452649372803 53,484.1619171113638 C 74.2,476.2793077289995 84.8,463.0539548593799 106,458.1224344470084 C 127.2,453.1909140346369 137.8,462.45323884258016 159,459.5043150495061 C 180.2,456.555391256432 190.8,451.3566873236479 212,443.3778154816381 C 233.2,435.39894363962827 243.8,428.9718149438292 265,419.6099558394569 C 286.2,410.24809673508463 296.8,414.839726231036 318,396.5685199597766 C 339.2,378.2973136885172 349.8,345.0147053360243 371,328.2539244831597 C 392.2,311.49314363029515 402.8,324.4381736684612 424,312.76461569545364 C 445.2,301.09105772244607 455.8,281.80504654833084 477,269.8861346181218 C 498.2,257.96722268791274 508.8,240.67330400362533 530,253.17005604440845 C 551.2,265.6668080851916 561.8,325.2123099031889 583,332.3698948220374 C 604.2,339.5274797408859 614.8,311.8370524191025 636,288.95798063865084 C 657.2,266.07890885819916 667.8,222.82047353835966 689,217.974535919779 C 710.2,213.1285983011983 720.8,248.94077309138564 742,264.7282925457475 C 763.2,280.5158120001093 773.8,326.6165055097473 795,296.91213319158817 C 816.2,267.20776087342904 826.8,159.4271044101551 848,116.20643095495194 C 869.2,72.98575749974879 879.8,60.963787918124154 901,80.80876591557245 C 922.2,100.65374391302075 932.8,223.1172490838226 954,215.43132094219345 C 975.2,207.7453928005643 996.4,76.98956435438004 1007,42.37912520742668" fill="none" stroke="#444cf7" stroke-width="4px" />   <g>   		<circle cx="0" cy="497.5354813588297" r="8" fill="#444cf7" />,		<circle cx="53" cy="484.1619171113638" r="8" fill="#444cf7" />,		<circle cx="106" cy="458.1224344470084" r="8" fill="#444cf7" />,		<circle cx="159" cy="459.5043150495061" r="8" fill="#444cf7" />,		<circle cx="212" cy="443.3778154816381" r="8" fill="#444cf7" />,		<circle cx="265" cy="419.6099558394569" r="8" fill="#444cf7" />,		<circle cx="318" cy="396.5685199597766" r="8" fill="#444cf7" />,		<circle cx="371" cy="328.2539244831597" r="8" fill="#444cf7" />,		<circle cx="424" cy="312.76461569545364" r="8" fill="#444cf7" />,		<circle cx="477" cy="269.8861346181218" r="8" fill="#444cf7" />,		<circle cx="530" cy="253.17005604440845" r="8" fill="#444cf7" />,		<circle cx="583" cy="332.3698948220374" r="8" fill="#444cf7" />,		<circle cx="636" cy="288.95798063865084" r="8" fill="#444cf7" />,		<circle cx="689" cy="217.974535919779" r="8" fill="#444cf7" />,		<circle cx="742" cy="264.7282925457475" r="8" fill="#444cf7" />,		<circle cx="795" cy="296.91213319158817" r="8" fill="#444cf7" />,		<circle cx="848" cy="116.20643095495194" r="8" fill="#444cf7" />,		<circle cx="901" cy="80.80876591557245" r="8" fill="#444cf7" />,		<circle cx="954" cy="215.43132094219345" r="8" fill="#444cf7" />,		<circle cx="1007" cy="42.37912520742668" r="8" fill="#444cf7" />   </g> </svg>